<svg xmlns="http://www.w3.org/2000/svg" xmlns:xlink="http://www.w3.org/1999/xlink" width="1080" zoomAndPan="magnify" viewBox="0 0 810 809.999993" height="1080" preserveAspectRatio="xMidYMid meet" version="1.0"><defs><clipPath id="67f7c8f31e"><path d="M 194.003906 101 L 616 101 L 616 728 L 194.003906 728 Z M 194.003906 101 " clip-rule="nonzero"/></clipPath></defs><path fill="#231f20" d="M 461.65625 137.164062 C 461.816406 143.738281 455.246094 147.976562 451.425781 152.277344 C 447.347656 156.851562 444.078125 163.128906 438.265625 165.429688 C 438.738281 159.707031 444.339844 155.894531 448.011719 151.78125 C 452.167969 147.128906 456.515625 142.519531 459.707031 137.164062 C 460.363281 137.164062 461.007812 137.164062 461.65625 137.164062 " fill-opacity="1" fill-rule="evenodd"/><path fill="#231f20" d="M 386.613281 197.585938 C 384.085938 201.054688 380.1875 203.175781 376.386719 205.382812 C 376.371094 204.902344 375.789062 204.996094 375.410156 204.886719 C 374.738281 203.347656 375.308594 203.261719 375.410156 201.480469 C 379.554688 201.070312 382.59375 194.929688 386.613281 197.585938 " fill-opacity="1" fill-rule="evenodd"/><path fill="#231f20" d="M 403.1875 225.355469 C 407.179688 234.820312 401.871094 246.46875 400.261719 255.074219 C 402.894531 258.933594 414.289062 254.640625 412.925781 261.40625 C 411.851562 266.789062 393.949219 263.179688 392.949219 258.480469 C 392.136719 254.632812 395.796875 248.003906 396.847656 243.382812 C 398.308594 236.960938 397.496094 231.527344 398.796875 226.8125 C 399.109375 225.179688 401.140625 225.242188 403.1875 225.355469 " fill-opacity="1" fill-rule="evenodd"/><path fill="#231f20" d="M 371.507812 237.53125 C 364.0625 229.808594 378.09375 223.621094 378.332031 232.65625 C 378.417969 236.011719 376.328125 238.078125 371.507812 237.53125 " fill-opacity="1" fill-rule="evenodd"/><path fill="#231f20" d="M 435.828125 230.707031 C 442.015625 229.125 441.671875 240.734375 435.828125 239.96875 C 431.476562 239.402344 431.273438 231.878906 435.828125 230.707031 " fill-opacity="1" fill-rule="evenodd"/><path fill="#231f20" d="M 436.324219 276.011719 C 439.277344 281.375 432.058594 283.257812 427.554688 285.277344 C 420.625 288.375 413.398438 290.851562 402.695312 289.65625 C 397.46875 289.078125 393.847656 287.070312 388.082031 284.304688 C 385.492188 283.054688 369.070312 276.632812 377.847656 273.578125 C 377.972656 273.546875 378.207031 273.578125 378.332031 273.578125 C 388.121094 273.65625 394.148438 282.457031 406.597656 282.832031 C 410.800781 282.96875 414.765625 282.496094 417.804688 281.875 C 424.648438 280.449219 427.851562 275.40625 436.324219 276.011719 " fill-opacity="1" fill-rule="evenodd"/><path fill="#231f20" d="M 475.292969 376.382812 C 476.375 380.789062 471.203125 383.878906 468.480469 386.617188 C 465.457031 389.652344 461.804688 392.542969 458.730469 395.382812 C 452.347656 401.320312 446.871094 409.230469 439.242188 412.917969 C 439.070312 408.753906 443.488281 405.699219 446.054688 403.175781 C 455.011719 394.441406 465.273438 385.910156 473.839844 376.382812 C 474.332031 376.382812 474.808594 376.382812 475.292969 376.382812 " fill-opacity="1" fill-rule="evenodd"/><path fill="#231f20" d="M 482.132812 387.59375 C 478.679688 394.101562 472.714844 398.828125 467.511719 403.667969 C 464.910156 406.074219 462.066406 408.726562 459.707031 411.460938 C 457.5625 413.945312 456.195312 419.078125 451.425781 418.28125 C 454.878906 412.0625 459.578125 406.449219 464.574219 401.71875 C 469.605469 396.972656 474.789062 392.460938 479.683594 387.59375 C 479.804688 387.058594 480.65625 387.253906 480.65625 386.617188 C 481.304688 386.789062 481.421875 387.476562 482.132812 387.59375 " fill-opacity="1" fill-rule="evenodd"/><path fill="#231f20" d="M 447.53125 394.414062 C 447.507812 397.484375 442.519531 401.875 439.242188 401.71875 C 439.859375 397.570312 444.703125 393.195312 447.53125 394.414062 " fill-opacity="1" fill-rule="evenodd"/><path fill="#231f20" d="M 490.410156 466.519531 C 491.421875 466.3125 491.695312 466.851562 492.359375 467 C 492.359375 470.851562 487.894531 472.019531 485.53125 473.824219 C 456.542969 496.03125 425.214844 519.207031 395.398438 541.550781 C 389.902344 545.652344 384.539062 549.824219 379.304688 554.214844 C 374.328125 558.40625 369.246094 563.648438 362.742188 565.421875 C 362.847656 561.515625 367.207031 559.984375 369.566406 558.109375 C 408.457031 527.195312 450.367188 497.054688 490.410156 466.519531 " fill-opacity="1" fill-rule="evenodd"/><path fill="#231f20" d="M 409.519531 474.796875 C 410.304688 474.660156 410.367188 475.265625 410.980469 475.285156 C 409.710938 480.652344 402.390625 482.71875 397.816406 486.003906 C 369.355469 506.488281 340.246094 527.953125 312.066406 549.347656 C 307.636719 552.699219 303.480469 558.847656 296.957031 558.109375 C 300.742188 553.792969 305.617188 550.339844 310.117188 546.898438 C 342.035156 522.550781 375.242188 497.566406 409.519531 474.796875 " fill-opacity="1" fill-rule="evenodd"/><path fill="#231f20" d="M 430.960938 493.796875 C 421.449219 502.597656 409 508.230469 397.816406 515.230469 C 389.484375 520.46875 381.332031 525.757812 373.46875 531.800781 C 371.222656 533.519531 368.238281 537.140625 364.691406 535.695312 C 367.925781 530.816406 373.601562 527.496094 378.824219 524.003906 C 393.476562 514.203125 411.683594 503.5625 426.578125 494.285156 C 427.488281 493.714844 428.765625 492.464844 430.960938 493.796875 " fill-opacity="1" fill-rule="evenodd"/><path fill="#231f20" d="M 467.988281 506.46875 C 466.988281 511.234375 460.640625 514.058594 456.308594 517.179688 C 428.128906 537.425781 395.4375 556.835938 373.46875 583.925781 C 372.160156 585.535156 370.523438 588.902344 367.613281 588.324219 C 365.898438 585.578125 369.765625 583.53125 371.023438 581.980469 C 389.160156 559.710938 414.058594 543.351562 438.265625 525.953125 C 447.28125 519.480469 456.085938 512.578125 464.574219 507.441406 C 465.273438 507.015625 465.953125 506.066406 467.988281 506.46875 " fill-opacity="1" fill-rule="evenodd"/><path fill="#231f20" d="M 485.054688 507.925781 C 481.757812 512.082031 477.019531 515.0625 472.867188 518.152344 C 451.789062 533.847656 429.105469 549.078125 410.007812 567.375 C 404.324219 572.820312 398.460938 578.003906 392.46875 583.445312 C 390.921875 584.847656 388.53125 587.441406 386.136719 586.859375 C 386.636719 582.171875 392.21875 578.960938 395.871094 575.648438 C 421.449219 552.554688 451.585938 528.09375 480.65625 508.898438 C 481.667969 508.242188 482.347656 506.261719 485.054688 507.925781 " fill-opacity="1" fill-rule="evenodd"/><path fill="#231f20" d="M 391.484375 509.878906 C 389.019531 515.316406 381.726562 516.925781 376.875 520.113281 C 367.265625 526.425781 358.03125 533.984375 348.609375 541.058594 C 344.085938 544.464844 339.203125 548.53125 333.503906 549.347656 C 335.90625 544 342.152344 541.890625 346.664062 538.628906 C 359.871094 529.046875 374.40625 516.785156 390.023438 509.390625 C 390.417969 509.644531 390.828125 509.898438 391.484375 509.878906 " fill-opacity="1" fill-rule="evenodd"/><path fill="#231f20" d="M 240.429688 521.082031 C 239.503906 521.777344 239.027344 522.9375 237.507812 523.027344 C 235.148438 526.34375 231.488281 528.910156 228.246094 531.800781 C 225.304688 534.4375 223.023438 539.710938 218.503906 539.101562 C 219.714844 533.917969 224.570312 531.59375 228.246094 528.394531 C 231.550781 525.527344 233.699219 521.5625 238.003906 519.140625 C 239.582031 519 240.34375 519.714844 240.429688 521.082031 " fill-opacity="1" fill-rule="evenodd"/><g clip-path="url(#67f7c8f31e)"><path fill="#231f20" d="M 282.339844 707.679688 C 283.058594 706.976562 283.058594 704.492188 282.339844 703.785156 C 279.929688 703.769531 280.0625 707.542969 282.339844 707.679688 Z M 299.882812 717.914062 C 303.761719 719.191406 311.015625 719.285156 315.476562 718.402344 C 312.75 714.46875 314.285156 706.277344 309.628906 704.273438 C 308.9375 708.824219 314.644531 714.734375 310.117188 716.945312 C 308.382812 716.398438 308.832031 713.675781 308.167969 712.066406 C 306.511719 711.878906 307.40625 714.214844 305.246094 713.53125 C 301.453125 711.46875 304.3125 702.765625 299.402344 701.839844 C 297.921875 707.019531 303.765625 713.101562 299.882812 717.914062 Z M 529.875 701.839844 C 529.484375 703.210938 530.570312 703.097656 530.363281 704.273438 C 531.976562 704.253906 532.222656 702.882812 532.320312 701.34375 C 531.179688 701.1875 530.445312 701.425781 529.875 701.839844 Z M 515.257812 714.996094 C 511.765625 713.121094 515.816406 703.722656 512.34375 701.839844 C 507.78125 702.648438 512.933594 713.152344 508.4375 714.015625 C 505.707031 711.605469 509.207031 705.851562 507.457031 702.804688 C 505.972656 702.453125 505.683594 703.300781 504.542969 703.300781 C 502.820312 706.765625 505.265625 714.421875 501.613281 715.964844 C 500.679688 713.484375 498.101562 712.664062 496.253906 711.089844 C 495.792969 708.960938 497.460938 704.691406 494.796875 704.761719 C 492.433594 706.464844 495.296875 713.382812 492.84375 714.996094 C 488.644531 714.90625 492.511719 706.042969 490.414062 705.246094 C 490.632812 708.027344 489.660156 711.332031 486.507812 712.066406 C 484.6875 709.414062 488.214844 704.398438 484.554688 703.785156 C 482.308594 705.289062 485.441406 709.1875 483.097656 710.613281 C 480.425781 710.515625 480.511719 707.679688 477.742188 707.679688 C 476.550781 704.660156 479.148438 699.835938 474.335938 699.886719 C 474.25 701.691406 472.96875 704.421875 473.351562 706.214844 C 474.257812 710.484375 484.410156 717.199219 489.921875 718.402344 C 504.320312 721.546875 525.707031 716.226562 529.386719 706.707031 C 527.433594 705.367188 526.996094 708.988281 525.007812 709.140625 C 522.6875 707.121094 525.28125 700.253906 523.058594 699.394531 C 522.269531 703.308594 523.972656 709.738281 520.621094 711.089844 C 518.164062 708.800781 521.636719 702.308594 519.648438 698.914062 C 512.054688 699.21875 519.808594 712.015625 515.257812 714.996094 Z M 290.136719 710.113281 C 287.984375 710.8125 288.871094 708.460938 287.210938 708.65625 C 287.46875 710.53125 284.40625 710.570312 285.753906 712.066406 C 289.375 714.457031 293.457031 716.390625 298.90625 716.945312 C 299.296875 714.445312 297.882812 713.742188 297.9375 711.574219 C 295.34375 710.949219 295.449219 712.984375 293.0625 712.546875 C 292.054688 709.011719 292.804688 703.714844 292.574219 699.394531 C 291.011719 699.175781 290.863281 697.542969 289.160156 697.449219 C 289.730469 701.113281 291.667969 705.976562 290.136719 710.113281 Z M 470.921875 702.324219 C 471.972656 700.054688 471.355469 696.765625 468.960938 696.472656 C 468.0625 698.261719 469.328125 701.476562 470.921875 702.324219 Z M 322.300781 704.273438 C 320.890625 707.359375 325.976562 711.644531 322.300781 714.015625 C 318.613281 712.347656 321.335938 704.257812 315.964844 704.273438 C 313.503906 708.238281 318.5 714.214844 317.429688 718.402344 C 330.425781 716.285156 339.664062 708.457031 342.277344 696.472656 C 335.976562 699.429688 330.226562 702.941406 322.300781 704.273438 Z M 283.320312 692.578125 C 283.984375 691.953125 283.796875 690.457031 283.804688 689.167969 C 283.320312 689.167969 282.832031 689.167969 282.339844 689.167969 C 282.429688 690.542969 281.925781 692.515625 283.320312 692.578125 Z M 276.003906 688.679688 C 276.535156 687.417969 277.191406 686.296875 276.980469 684.289062 C 276.363281 684.269531 276.304688 683.671875 275.519531 683.808594 C 275.175781 685.601562 274.65625 687.535156 276.003906 688.679688 Z M 242.378906 676.019531 C 243.761719 676.472656 244.792969 672.84375 242.871094 673.09375 C 242.882812 674.238281 242.035156 674.527344 242.378906 676.019531 Z M 398.796875 671.621094 C 400.578125 672.53125 404.777344 672.238281 406.597656 671.621094 C 407.140625 669.867188 408.726562 667.191406 407.570312 665.292969 C 403.933594 666.695312 400.230469 668.023438 398.796875 671.621094 Z M 406.105469 657.011719 C 400.128906 662.050781 390.535156 664.136719 387.59375 671.621094 C 391.609375 672.421875 395.660156 668.453125 399.289062 666.265625 C 402.667969 664.230469 408.839844 661.773438 407.570312 657.011719 C 407.082031 657.011719 406.597656 657.011719 406.105469 657.011719 Z M 439.730469 671.621094 C 446.199219 671.722656 456.4375 672.347656 462.628906 670.648438 C 463.515625 663.070312 466 654.558594 467.019531 648.726562 C 457.550781 655.992188 447.101562 662.269531 439.730469 671.621094 Z M 405.132812 647.757812 C 400.003906 652.605469 393.617188 656.59375 387.59375 660.910156 C 382.203125 664.773438 375.253906 667.460938 371.511719 673.09375 C 374.597656 673.09375 377.6875 673.09375 380.773438 673.09375 C 381.410156 671.78125 382.082031 670.5 382.722656 669.195312 C 387.117188 664.921875 392.660156 662.125 398.3125 658.476562 C 402.085938 656.039062 409.164062 653.648438 407.570312 647.757812 C 406.757812 647.757812 405.949219 647.757812 405.132812 647.757812 Z M 495.28125 661.390625 C 494.9375 657.519531 495.988281 653.40625 495.28125 650.191406 C 493.253906 640.992188 485.675781 648.15625 485.054688 653.605469 C 484.660156 657.011719 486.386719 661.359375 486.023438 665.777344 C 485.832031 668.058594 484.753906 670.484375 484.554688 672.597656 C 484.152344 677.054688 485.933594 682.65625 482.132812 684.289062 C 473.542969 680.210938 480.835938 660.25 475.792969 652.632812 C 472.289062 656.128906 471.652344 663.109375 470.921875 669.195312 C 470.351562 673.898438 468.644531 679.910156 469.453125 683.808594 C 470.757812 690.144531 481.957031 695.1875 487.96875 695.988281 C 500.449219 697.660156 518.300781 693.105469 523.535156 685.261719 C 525.648438 682.113281 527.054688 674.589844 526.46875 667.734375 C 526.371094 666.617188 525.257812 664.859375 525.007812 662.855469 C 524.246094 656.785156 526.355469 649.296875 521.589844 648.726562 C 519.132812 648.441406 519.199219 650.117188 517.210938 651.167969 C 519.101562 663.390625 515.375 675.070312 514.292969 684.289062 C 508.746094 683.1875 510.824219 674.164062 510.390625 667.734375 C 509.929688 660.972656 509.433594 650.78125 507.457031 646.292969 C 501.886719 647.691406 504.15625 655.316406 503.566406 661.390625 C 503.347656 663.582031 502.230469 665.667969 502.109375 667.734375 C 501.785156 672.960938 504.796875 682.183594 498.699219 682.34375 C 498.085938 676.496094 495.957031 668.917969 495.28125 661.390625 Z M 333.019531 677.960938 C 332.648438 680.605469 331.429688 684.226562 329.113281 684.289062 C 323.636719 684.472656 325.871094 667.703125 325.222656 661.390625 C 324.824219 657.507812 322.667969 643.921875 319.371094 645.3125 C 311.539062 648.652344 318.019531 666.421875 313.527344 673.09375 C 315.910156 675.78125 317.3125 685.738281 310.605469 684.789062 C 308.199219 679.265625 308.339844 669.371094 307.679688 661.390625 C 307.171875 655.214844 309.308594 648.371094 303.789062 646.292969 C 301.304688 655.0625 300.355469 663.464844 299.882812 674.0625 C 299.652344 679.109375 301.585938 683.980469 297.449219 683.808594 C 292.769531 683.617188 295.28125 675.414062 295.015625 671.148438 C 294.917969 669.722656 293.839844 667.925781 293.550781 665.777344 C 292.582031 658.582031 296.234375 648.015625 289.652344 648.726562 C 284.566406 649.28125 286.808594 658.292969 286.234375 662.855469 C 285.71875 667.085938 283.789062 669.980469 284.777344 674.550781 C 286.457031 677.589844 288.050781 680.699219 287.699219 685.761719 C 293.089844 689.792969 302.570312 695.636719 311.085938 696.472656 C 325.109375 697.867188 336.328125 691.570312 343.738281 684.789062 C 343.054688 681.003906 344.621094 676.59375 344.722656 672.597656 C 344.949219 661.230469 346.132812 645.917969 335.457031 645.808594 C 331.289062 653.597656 334.695312 666.070312 333.019531 677.960938 Z M 575.199219 649.21875 C 577.753906 649.507812 577.992188 647.476562 578.605469 645.808594 C 576.617188 643.027344 573.253906 646.707031 575.199219 649.21875 Z M 567.890625 656.519531 C 570.355469 655.582031 572.425781 654.25 572.265625 650.675781 C 571.695312 649.472656 569.1875 650.191406 568.867188 648.726562 C 569.804688 646.855469 569.957031 644.871094 567.890625 643.863281 C 567.09375 647.027344 567.09375 653.359375 567.890625 656.519531 Z M 578.605469 637.523438 C 580.496094 637.300781 581.566406 636.257812 581.527344 634.113281 C 579.398438 633.996094 577.84375 636.277344 578.605469 637.523438 Z M 567.890625 636.066406 C 569.128906 636.003906 569.777344 635.355469 569.832031 634.113281 C 568.304688 633.894531 567.660156 634.535156 567.890625 636.066406 Z M 405.132812 633.617188 C 391.554688 642.402344 378.152344 652.929688 365.664062 662.367188 C 361.660156 665.40625 354.757812 667.007812 354.457031 673.09375 C 364.25 675.054688 367.964844 669.695312 373.945312 665.777344 C 385.511719 658.222656 397.320312 651.007812 406.597656 642.878906 C 406.671875 640.058594 408.089844 635.507812 406.105469 633.617188 C 405.789062 633.617188 405.457031 633.617188 405.132812 633.617188 Z M 573.246094 629.734375 C 575.910156 629.949219 576.550781 628.15625 576.65625 625.828125 C 574.457031 626.0625 573.175781 627.222656 573.246094 629.734375 Z M 587.859375 628.277344 C 590.746094 627.917969 592.382812 626.292969 592.742188 623.390625 C 589.289062 623.1875 588.289062 625.449219 587.859375 628.277344 Z M 585.902344 623.390625 C 587.152344 623.304688 588.339844 620.671875 587.859375 620.472656 C 587.230469 621.472656 584.320312 621.664062 585.902344 623.390625 Z M 567.402344 622.90625 C 567.941406 623.011719 568.15625 623.453125 568.375 623.882812 C 571.472656 624.21875 571.695312 621.683594 572.757812 619.984375 C 571.222656 616.589844 566.941406 618.917969 567.402344 622.90625 Z M 352.515625 619.015625 C 351.832031 621.519531 351.636719 626.761719 352.515625 629.238281 C 357.339844 625.628906 363.644531 623.484375 366.644531 618.042969 C 361.632812 618.0625 358.113281 619.578125 352.515625 619.015625 Z M 365.664062 642.878906 C 362.019531 645.320312 354.386719 649.425781 353.484375 651.65625 C 351.925781 655.492188 354.585938 661.390625 354.457031 665.292969 C 372.695312 653.964844 388.535156 640.253906 406.597656 628.761719 C 406.484375 625.585938 408.902344 618.355469 405.132812 617.546875 C 394.019531 622.699219 377.628906 634.890625 365.664062 642.878906 Z M 582.015625 619.5 C 584.503906 619.871094 585.210938 618.472656 585.425781 616.570312 C 583.820312 615.441406 581.804688 617.273438 582.015625 619.5 Z M 580.070312 613.652344 C 579.414062 613.652344 578.765625 613.652344 578.121094 613.652344 C 577.730469 615.527344 580.457031 615.527344 580.070312 613.652344 Z M 587.378906 611.703125 C 587.332031 612.550781 587.488281 613.21875 587.859375 613.652344 C 589.042969 613.367188 590.367188 613.230469 590.296875 611.703125 C 589.15625 611.546875 588.28125 610.746094 587.378906 611.703125 Z M 573.246094 602.933594 C 574.09375 602.484375 575.855469 602.949219 575.679688 601.46875 C 574.433594 601.527344 573.175781 601.5625 573.246094 602.933594 Z M 219.480469 604.398438 C 228.640625 606.648438 232.945312 596.550781 241.410156 599.527344 C 241.402344 598.234375 241.597656 596.738281 240.921875 596.113281 C 232.484375 597.578125 223.300781 598.308594 219.480469 604.398438 Z M 219.003906 600.003906 C 220.566406 597.515625 225.035156 597.925781 226.304688 595.140625 C 222.65625 595.230469 218.78125 597.675781 219.003906 600.003906 Z M 238.972656 581.007812 C 235.855469 584.546875 231.121094 586.476562 228.746094 590.75 C 232.050781 591.371094 237.734375 590.820312 241.410156 590.261719 C 241.199219 586.582031 241.519531 582.371094 238.972656 581.007812 Z M 255.054688 430.953125 C 246.601562 461.230469 254.011719 499.914062 251.15625 535.210938 C 250.101562 548.238281 250.230469 562.253906 251.15625 572.71875 C 251.621094 577.988281 249.84375 581.554688 249.210938 586.855469 C 246.335938 610.992188 251.164062 634.429688 252.617188 656.039062 C 253.050781 662.421875 251.421875 668.777344 254.574219 674.550781 C 266.773438 678.265625 267.179688 671.003906 273.085938 667.238281 C 275.105469 665.957031 276.355469 666.707031 277.960938 664.3125 C 276.296875 651.734375 281.613281 634.984375 295.988281 641.90625 C 298.609375 636.335938 307.460938 635.953125 311.578125 640.441406 C 314.316406 638.304688 317.226562 636.351562 322.785156 637.03125 C 323.574219 632.503906 323.574219 624.996094 322.785156 620.472656 C 316.933594 619.101562 303.964844 623.285156 303.789062 615.601562 C 303.703125 612.339844 309.429688 608.992188 311.085938 607.324219 C 317.246094 601.125 322.53125 595.15625 329.113281 589.777344 C 335.746094 584.378906 336.867188 586.074219 343.25 590.261719 C 346.566406 592.449219 350.332031 594.367188 353.484375 596.59375 C 357.253906 599.265625 359.957031 602.34375 362.746094 604.398438 C 365.082031 606.113281 368.921875 606.847656 370.539062 608.289062 C 372.367188 609.925781 371.839844 612.433594 374.4375 613.164062 C 378.074219 612.722656 380.074219 606.613281 383.695312 609.265625 C 375.046875 619.457031 361.8125 625.066406 352.515625 634.601562 C 352.515625 638.660156 352.515625 642.71875 352.515625 646.78125 C 360.332031 643.621094 366.636719 638.125 373.46875 633.617188 C 380.253906 629.160156 387.53125 625.125 393.441406 619.5 C 389.671875 617.925781 385.878906 617.410156 385.644531 613.164062 C 385.40625 608.878906 392.378906 605.011719 396.363281 600.492188 C 400.28125 596.042969 405.753906 591.425781 409.035156 587.339844 C 411.285156 584.539062 412.820312 578.570312 417.3125 579.058594 C 419.144531 579.257812 420.738281 583.296875 423.160156 583.445312 C 424.929688 583.558594 431.398438 578.410156 433.882812 576.625 C 437.535156 574.011719 440.964844 571.023438 443.632812 568.828125 C 458.082031 556.984375 469.675781 548.535156 483.097656 538.132812 C 490.09375 532.707031 496.5 526.816406 503.566406 524.492188 C 503.75 529.273438 498.125 530.164062 495.28125 532.289062 C 492.066406 534.683594 489.175781 538.0625 486.023438 540.578125 C 466.34375 556.246094 444.691406 569.976562 426.582031 586.367188 C 430.738281 595.742188 436.847656 590.609375 443.140625 585.878906 C 462.753906 571.148438 480.832031 556.574219 498.699219 542.035156 C 501.585938 539.667969 504.339844 535.257812 508.4375 536.183594 C 507.269531 540.019531 503.476562 542.222656 500.640625 544.46875 C 482.445312 558.847656 463.796875 573.636719 445.582031 587.339844 C 442.660156 589.535156 438.566406 591.820312 437.296875 595.617188 C 440.945312 598.535156 443.644531 593.914062 445.582031 592.214844 C 458.097656 581.234375 471.578125 570.730469 484.554688 561.03125 C 489.765625 557.152344 494.785156 550.960938 501.128906 550.320312 C 498.636719 555.761719 492.125 558.660156 486.996094 562.5 C 474.652344 571.738281 462.570312 582.328125 450.453125 592.699219 C 444.964844 597.398438 440.46875 600.296875 448.503906 603.90625 C 466.304688 592.222656 483.335938 577.425781 499.175781 564.445312 C 501.269531 562.726562 504.300781 559.496094 507.457031 560.542969 C 491.886719 578.585938 469.792969 590.113281 452.402344 606.347656 C 461.859375 618.523438 442.183594 613.941406 435.832031 618.042969 C 434.976562 621.136719 435.191406 626.59375 435.832031 629.734375 C 443.011719 626.570312 448.617188 620.734375 454.84375 616.082031 C 470.320312 604.511719 486.882812 592.597656 501.128906 580.515625 C 503.90625 578.171875 506.253906 574.253906 510.390625 574.191406 C 510.113281 578.066406 506.09375 580.777344 503.566406 582.957031 C 482.132812 601.425781 456.386719 616.152344 436.804688 635.578125 C 436.816406 638.648438 436.617188 641.941406 437.296875 644.34375 C 451.636719 634.707031 463.902344 621.839844 477.742188 611.210938 C 488.167969 603.21875 499.644531 595.890625 510.390625 588.800781 C 514.011719 586.40625 518.183594 583.648438 522.566406 583.445312 C 521.21875 588.34375 515.507812 589.382812 511.84375 591.730469 C 500.175781 599.214844 489.226562 606.566406 478.226562 615.113281 C 468.125 622.96875 457.285156 632.082031 447.042969 640.9375 C 441.394531 645.808594 436.195312 648.609375 437.296875 657.011719 C 444.617188 654.148438 450.074219 647.742188 456.308594 642.878906 C 472.1875 630.460938 488.132812 616.929688 503.566406 604.875 C 506.644531 602.476562 510.066406 598.929688 514.292969 599.035156 C 513.792969 602.390625 510.25 604.109375 507.953125 605.855469 C 489.761719 619.699219 473.003906 634.578125 455.332031 648.242188 C 449.390625 654.214844 439.5 657.171875 437.296875 666.265625 C 441.308594 666.503906 443.921875 662.539062 446.558594 660.421875 C 461.8125 648.121094 476.765625 635.789062 492.84375 624.855469 C 499.460938 620.359375 505.394531 614.714844 512.820312 611.703125 C 505.957031 620.644531 495.722656 626.9375 486.507812 633.144531 C 483.53125 635.140625 479.34375 637.097656 478.226562 640.9375 C 482.015625 643.683594 484.867188 637.65625 489.429688 637.03125 C 494.015625 636.421875 496.316406 638.277344 500.160156 640.441406 C 504.019531 634.824219 512.65625 637.613281 515.75 641.90625 C 529.917969 635.023438 534.691406 651.859375 533.296875 666.757812 C 540.898438 667.519531 550.714844 666.328125 558.148438 665.292969 C 561.015625 645.789062 559.453125 625.605469 558.617188 605.375 C 557.761719 584.472656 560.59375 564.296875 559.121094 543.976562 C 556.292969 505.21875 561.550781 465.636719 554.25 431.433594 C 550.726562 429.496094 546.695312 428.789062 542.539062 428.507812 C 510.125 426.335938 469.144531 431.371094 435.347656 428.507812 C 430.296875 428.085938 425.558594 426.445312 420.722656 428.023438 C 419.800781 435.472656 425.34375 448.800781 420.238281 453.851562 C 414.03125 459.992188 393.460938 450.527344 384.179688 452.875 C 378.640625 448.527344 382.59375 434.292969 381.265625 427.046875 C 339.839844 425.214844 291.617188 424.703125 255.054688 430.953125 Z M 564.480469 692.578125 C 571.738281 687.113281 580.476562 680.882812 586.398438 673.578125 C 595.578125 662.285156 601.417969 643.589844 604.914062 626.320312 C 606.136719 620.308594 608.171875 612.960938 607.84375 607.324219 C 607.742188 605.890625 606.523438 604.453125 606.375 602.933594 C 606.019531 599.214844 606.21875 595.414062 605.886719 592.699219 C 604.214844 578.984375 605.507812 563.960938 604.914062 549.34375 C 604.542969 539.964844 602.042969 531.355469 601.5 522.542969 C 601.128906 516.3125 601.777344 509.222656 602.492188 502.5625 C 603.515625 492.671875 604.296875 478.4375 603.445312 467.5 C 602.152344 450.5625 600.21875 433.738281 597.125 418.773438 C 596.574219 416.160156 596.816406 413.550781 596.148438 410.972656 C 593.355469 400.191406 586.445312 392.078125 582.988281 382.714844 C 570.859375 371.9375 555.816406 364.074219 537.660156 359.332031 C 533.824219 376.300781 530.679688 401.109375 533.78125 420.226562 C 546.078125 421.527344 560.792969 419.859375 563.496094 428.023438 C 567.402344 439.742188 565.894531 460.839844 566.914062 475.285156 C 567.539062 484.15625 566.550781 491.785156 567.402344 500.136719 C 573.378906 496.042969 574.574219 487.15625 581.042969 483.570312 C 580.316406 495.371094 566.066406 500.394531 567.402344 514.265625 C 572.40625 512.53125 572.445312 503.5 578.121094 504.035156 C 577.25 512.292969 565.703125 516.5625 567.402344 527.414062 C 570.644531 525.308594 573.042969 521.5625 575.679688 518.152344 C 577.984375 515.183594 579.777344 509.535156 584.453125 510.359375 C 580.21875 522.699219 566.445312 525.492188 567.402344 543.007812 C 573.074219 540.339844 575.738281 533.089844 580.070312 527.902344 C 584.394531 522.714844 589.371094 516.789062 595.167969 513.765625 C 596.117188 517.765625 591.5 520.097656 589.324219 522.542969 C 586.875 525.304688 584.394531 528.398438 582.015625 531.3125 C 576.160156 538.484375 567.273438 546.636719 567.890625 557.617188 C 574.796875 552.261719 578.855469 544.878906 584.453125 538.132812 C 587.164062 534.863281 589.585938 529.179688 594.679688 529.367188 C 591.171875 535.71875 586.164062 540.652344 581.527344 547.386719 C 576.324219 554.941406 566.980469 560.085938 567.402344 571.75 C 574.871094 565.417969 581.0625 556.59375 587.859375 549.824219 C 589.882812 547.804688 592.617188 544.1875 596.148438 544.957031 C 591.019531 553.210938 583.042969 558.769531 577.148438 565.90625 C 573.398438 570.4375 568.316406 575.3125 567.402344 581.976562 C 571.832031 578.722656 575.644531 574.035156 579.578125 569.800781 C 583.320312 565.777344 586.921875 560.054688 592.742188 559.574219 C 589.503906 565.449219 583.761719 569.726562 579.09375 574.667969 C 576.863281 577.027344 574.574219 579.980469 572.265625 582.472656 C 570.136719 584.777344 565.738281 587.039062 567.402344 591.238281 C 571.558594 590.308594 574.324219 586.617188 577.632812 583.925781 C 580.59375 581.527344 583.761719 576.78125 587.859375 578.570312 C 584.660156 584.457031 577.121094 586.011719 574.226562 592.214844 C 583.535156 591.597656 585.386719 581 593.210938 580.515625 C 591.808594 587.390625 583.542969 587.398438 582.015625 594.160156 C 589.25 594.902344 592.515625 582.71875 599.554688 584.902344 C 597.109375 590.574219 589.433594 591.03125 587.859375 597.570312 C 588.730469 599.132812 591.636719 598.671875 591.761719 600.988281 C 591.769531 603.589844 588.113281 602.542969 588.351562 605.375 C 592.03125 607.0625 599.597656 611.625 592.238281 614.625 C 593.542969 614.632812 595.121094 614.359375 595.167969 615.601562 C 595.714844 617.925781 593.652344 617.664062 594.195312 619.984375 C 595.867188 623.925781 602.800781 627.496094 600.527344 632.160156 C 597.472656 632.296875 597.898438 628.945312 596.148438 627.773438 C 593.027344 628.070312 591.558594 630.019531 590.78125 632.652344 C 591.628906 635.386719 594.433594 636.148438 594.195312 639.964844 C 591.386719 641.828125 591.546875 638.59375 589.808594 638.007812 C 590.140625 643.527344 595.773438 646.335938 594.679688 651.65625 C 589.019531 649.519531 588.945312 641.796875 584.945312 638.007812 C 573.53125 642.847656 591.203125 656.199219 586.886719 662.855469 C 582.882812 660.363281 583.070312 653.679688 579.578125 650.675781 C 572.933594 655.277344 584.507812 663.335938 582.015625 668.222656 C 577.753906 668.054688 577.203125 660.078125 574.707031 656.519531 C 561.621094 660.722656 578.054688 672.003906 574.707031 682.34375 C 569.015625 681.035156 573.074219 667.453125 565.453125 669.683594 C 564.171875 673.378906 571.726562 678.683594 567.402344 682.34375 C 562.910156 679.855469 565.488281 670.289062 558.617188 670.171875 C 557.972656 676.734375 566.496094 683.328125 563.992188 690.136719 C 560.613281 690.101562 561.550781 685.761719 560.085938 683.808594 C 559.390625 682.511719 559 685.601562 557.164062 684.789062 C 553.148438 681.96875 554.835938 673.476562 550.339844 671.148438 C 550.234375 671.523438 549.9375 671.707031 549.363281 671.621094 C 548.988281 676.574219 555.992188 685 551.816406 690.628906 C 547.988281 685.492188 549.714844 672.277344 542.054688 672.597656 C 543.363281 681.730469 544.703125 700.839844 539.136719 707.679688 C 547.726562 703.546875 556.464844 698.613281 564.480469 692.578125 Z M 234.589844 653.605469 C 236.289062 653.679688 238.066406 647.222656 241.410156 650.191406 C 235.984375 657.097656 232.0625 665.535156 226.304688 672.121094 C 224.464844 667.667969 229.710938 665.058594 226.304688 661.390625 C 229.996094 654.214844 233.6875 647.007812 238.496094 640.9375 C 239.136719 640.121094 241.242188 640.773438 241.902344 639.964844 C 242.726562 638.023438 241.9375 635.160156 241.410156 633.144531 C 234.773438 638.625 230.171875 646.699219 225.816406 654.089844 C 224.453125 656.394531 223.054688 660.019531 219.972656 660.421875 C 220.988281 653.765625 225.121094 648.046875 228.746094 642.878906 C 233.195312 636.539062 241.265625 631.363281 241.410156 621.933594 C 234.832031 628.203125 227.875 636.683594 223.382812 644.832031 C 222.011719 647.308594 221.238281 651.648438 218.019531 652.140625 C 216.039062 648.183594 221.378906 644.496094 221.921875 639.964844 C 226.203125 636.261719 228.808594 631.183594 232.15625 626.800781 C 235.441406 622.511719 241.058594 618.90625 241.410156 612.191406 C 234.460938 618.464844 228.605469 627.027344 223.867188 635.089844 C 222.371094 637.648438 221.230469 641.902344 217.539062 642.402344 C 216.871094 638.769531 219.699219 635.28125 221.425781 632.652344 C 227.457031 623.535156 234.679688 615.558594 239.957031 606.347656 C 235.304688 610.414062 231.121094 615.113281 227.277344 619.984375 C 223.398438 624.910156 220.675781 630.933594 215.582031 634.601562 C 216.007812 625.101562 225.785156 620.769531 228.746094 612.191406 C 218.710938 615.148438 217.3125 626.742188 209.742188 632.160156 C 208.957031 626.714844 213.398438 622.738281 216.074219 619.015625 C 218.933594 615.019531 222.859375 611.765625 225.328125 607.808594 C 217.007812 608.269531 216.476562 619.066406 208.761719 618.519531 C 210.699219 614.449219 213.9375 611.675781 217.046875 608.78125 C 213.554688 605.421875 217.859375 602.074219 215.582031 597.570312 C 223.230469 588.484375 234.199219 582.734375 241.902344 573.699219 C 241.742188 569.957031 241.625 566.179688 240.921875 562.980469 C 235.402344 565.640625 231.617188 570.824219 227.277344 575.164062 C 222.941406 579.492188 219.402344 585.394531 213.636719 586.855469 C 213.46875 583.285156 216.089844 582.480469 218.019531 581.007812 C 224.539062 571.929688 233.003906 564.808594 241.410156 557.617188 C 241.410156 555.671875 241.410156 553.722656 241.410156 551.769531 C 236.535156 554.46875 232.273438 558.476562 228.246094 562.5 C 224.371094 566.390625 220.992188 572.339844 215.097656 572.71875 C 217.578125 566.117188 224.671875 564.109375 227.769531 558.109375 C 234.546875 552.390625 243.363281 548.695312 241.902344 534.71875 C 235.527344 537.382812 229.851562 543.195312 225.328125 548.363281 C 223.414062 550.554688 221.644531 556.242188 217.539062 554.214844 C 218.476562 550.917969 221.644531 548.355469 224.355469 545.441406 C 226.765625 542.851562 229.09375 539.636719 231.660156 537.160156 C 234.359375 534.570312 240.824219 531.992188 241.902344 528.390625 C 243.566406 522.78125 241.09375 514.84375 241.410156 507.925781 C 234.214844 511.078125 232.734375 523.589844 224.355469 523.523438 C 229.382812 515.390625 235.828125 508.683594 241.902344 501.597656 C 241.835938 474.40625 240.84375 446.296875 246.285156 424.617188 C 253.75 421.027344 265.386719 421.621094 275.03125 420.226562 C 277.464844 411.226562 276.804688 399.824219 276.003906 389.53125 C 275.179688 378.804688 273.980469 367.816406 271.625 359.332031 C 263.585938 360.726562 255.070312 364.546875 247.261719 368.589844 C 240.34375 372.164062 230.792969 376.246094 226.789062 381.742188 C 224.136719 385.382812 222.027344 391.234375 219.480469 396.355469 C 217.019531 401.3125 213.910156 406.269531 212.664062 411.460938 C 208.886719 427.175781 207.136719 447.21875 205.835938 466.519531 C 204.796875 482.054688 205.40625 498.699219 206.8125 513.765625 C 207.585938 522.105469 205.8125 528.65625 205.351562 537.644531 C 204.898438 546.570312 204.15625 556.835938 204.371094 563.472656 C 205.113281 585.308594 201.707031 607.699219 206.328125 627.296875 C 209.050781 638.859375 212.023438 651.253906 217.046875 660.910156 C 220.488281 667.519531 224.042969 674.53125 230.203125 677.476562 C 234.257812 671.261719 235.082031 660.546875 241.902344 657.503906 C 239.753906 664.335938 236.785156 674.445312 230.695312 678.941406 C 242.59375 690.417969 256.089844 700.316406 272.113281 707.679688 C 267.117188 702.925781 269.136719 691.164062 267.234375 683.320312 C 263.796875 683.304688 262.503906 685.402344 258.949219 685.261719 C 258.5625 678.335938 249.792969 681.316406 245.304688 679.421875 C 244.328125 680.746094 244.03125 684.714844 241.902344 683.320312 C 240.410156 681.796875 242.328125 679.542969 241.902344 677.476562 C 239.582031 677.484375 240.632812 681.597656 238.003906 679.910156 C 236.03125 673.988281 243.796875 669.34375 244.828125 663.339844 C 245.390625 660.058594 244.144531 655.847656 243.847656 652.140625 C 243.566406 648.597656 244.308594 643.972656 241.410156 641.90625 C 238.808594 645.472656 236.289062 649.140625 234.589844 653.605469 Z M 497.714844 346.175781 C 493.878906 370.050781 493.765625 395.898438 495.769531 419.75 C 504.089844 420.53125 515.714844 420.566406 524.03125 419.75 C 523.9375 396.753906 526.59375 376.503906 528.910156 355.929688 C 518.867188 352.308594 507.265625 350.269531 497.714844 346.175781 Z M 307.679688 347.152344 C 299.476562 351.585938 287.859375 352.078125 279.914062 356.40625 C 283.320312 375.722656 284.253906 397.527344 285.269531 419.25 C 293.214844 418.703125 304.210938 417.117188 314.996094 417.792969 C 313.558594 396.011719 316.234375 365.882812 311.085938 346.175781 C 309 345.792969 308.566406 346.675781 307.679688 347.152344 Z M 319.863281 342.765625 C 322.382812 363.222656 322.277344 395.46875 321.324219 417.792969 C 378.0625 416.9375 429.800781 421.058594 486.507812 420.226562 C 487.488281 418.78125 486.785156 415.632812 486.996094 413.410156 C 483.742188 413.808594 483.015625 419.058594 479.6875 417.792969 C 480.386719 410.636719 490.050781 410.042969 486.996094 400.742188 C 480.234375 403.25 478.675781 413.507812 471.410156 413.898438 C 472.957031 409.683594 475.496094 407.339844 478.714844 403.664062 C 480.90625 401.175781 486.097656 397.527344 486.996094 394.414062 C 488.816406 388.089844 487.121094 377.386719 487.488281 369.074219 C 487.9375 358.640625 488.289062 350.957031 489.429688 342.269531 C 483.945312 339.976562 478.285156 337.828125 472.382812 335.945312 C 459.78125 355.886719 440.355469 374.972656 408.054688 374.4375 C 371.554688 373.824219 355.222656 358.125 341.789062 333.503906 C 341.464844 333.503906 341.136719 333.503906 340.816406 333.503906 C 334.847656 337.613281 325.726562 338.554688 319.863281 342.765625 Z M 408.054688 319.378906 C 406.136719 319.527344 403.960938 319.503906 402.214844 319.378906 C 384.59375 318.078125 370.058594 309.582031 358.847656 303.304688 C 358.230469 303.5 357.84375 303.925781 357.867188 304.761719 C 355.933594 314.683594 351.898438 322.511719 348.613281 331.074219 C 354.789062 340.867188 359.496094 350.269531 368.59375 357.378906 C 379.496094 365.898438 408.984375 369.914062 425.605469 365.664062 C 434.214844 363.460938 447.875 355.636719 454.347656 349.582031 C 457.488281 346.65625 464.332031 337.515625 464.101562 334.972656 C 463.878906 332.734375 459.285156 329.570312 457.757812 327.183594 C 454.1875 321.527344 452.585938 314.242188 450.933594 306.714844 C 437.792969 312.28125 423.855469 318.15625 408.054688 319.378906 Z M 425.105469 221.457031 C 401.808594 222.605469 374.507812 223.09375 355.429688 219.507812 C 347.011719 217.914062 339.164062 211.277344 333.019531 209.265625 C 332.898438 209.964844 332.210938 210.09375 332.035156 210.726562 C 332.410156 216.210938 333.644531 220.824219 333.992188 226.328125 C 330.609375 230.359375 324.472656 229.15625 323.273438 234.601562 C 321.539062 242.507812 329.109375 248.707031 332.53125 253.605469 C 342.046875 253.9375 340.574219 260.183594 342.761719 266.28125 C 345.539062 273.996094 351.351562 284.09375 356.402344 289.652344 C 358.433594 291.898438 360.101562 294.910156 361.773438 296.480469 C 369.878906 304.09375 391.320312 312.960938 406.105469 312.554688 C 410.640625 312.4375 416.441406 310.707031 421.703125 309.628906 C 445.515625 304.800781 465.289062 292.890625 466.535156 267.253906 C 466.667969 264.480469 465.394531 262.0625 466.535156 259.453125 C 468.980469 253.847656 480.433594 254.214844 478.714844 243.378906 C 478.042969 239.128906 472.175781 238.289062 471.410156 233.632812 C 470.292969 226.976562 475.832031 223.347656 472.867188 215.601562 C 459.296875 217.136719 442.996094 220.554688 425.105469 221.457031 Z M 484.078125 198.554688 C 484.335938 195.25 481.914062 189.554688 478.226562 188.808594 C 475.945312 188.351562 472.53125 190.050781 469.949219 190.273438 C 462.367188 190.90625 454.152344 190.878906 446.558594 191.730469 C 445.675781 192.488281 446.230469 194.65625 445.089844 195.144531 C 439.414062 197.445312 434.167969 200.859375 429.015625 203.910156 C 423.777344 207.015625 417.703125 209.449219 413.90625 214.144531 C 419.101562 214.144531 424.304688 214.144531 429.5 214.144531 C 433.386719 209.699219 439.535156 207.644531 444.601562 204.398438 C 448.230469 202.074219 451.550781 197.808594 455.332031 199.039062 C 454.25 202.792969 450.035156 204.394531 447.042969 206.34375 C 443.859375 208.417969 439.992188 209.726562 437.785156 212.679688 C 447.054688 214.253906 449.351562 203.871094 456.308594 206.34375 C 456.117188 209.25 451.886719 208.105469 451.914062 211.21875 C 461.441406 210.523438 483.261719 208.800781 484.078125 198.554688 Z M 325.222656 187.347656 C 324.839844 187.457031 324.660156 187.753906 324.734375 188.320312 C 333.617188 208.191406 355.742188 214.804688 384.679688 214.628906 C 388.894531 211.59375 393.964844 208.921875 398.796875 206.34375 C 403.746094 203.71875 408.476562 199.964844 413.90625 199.53125 C 409.828125 207.796875 397.257812 207.5625 391.976562 214.628906 C 402.410156 216.734375 407.878906 212.167969 413.90625 208.789062 C 420.800781 204.910156 426.46875 201.691406 432.421875 198.0625 C 435.421875 196.238281 439.371094 195.355469 441.195312 192.214844 C 431.566406 193.011719 420.101562 189.625 412.441406 191.242188 C 410.1875 191.726562 408.382812 194.25 406.597656 195.144531 C 401.867188 197.492188 397.386719 199.246094 392.953125 201.960938 C 388.746094 204.539062 384.25 208.082031 379.792969 207.324219 C 381.273438 203.90625 385.425781 202.429688 388.5625 200.503906 C 394.046875 197.136719 399.925781 194.472656 405.132812 191.242188 C 379.1875 189.582031 350.742188 187.820312 325.222656 187.347656 Z M 473.835938 181.980469 C 474.773438 182.953125 476.148438 182.222656 477.261719 181.980469 C 477.261719 181.179688 477.261719 180.359375 477.261719 179.5625 C 475.378906 179.625 474.449219 180.640625 473.835938 181.980469 Z M 359.328125 118.660156 C 350.1875 123.800781 342.71875 136.878906 337.40625 147.398438 C 332.1875 157.722656 327.371094 168.933594 325.222656 180.03125 C 340.035156 180.65625 355.476562 180.640625 369.074219 182.480469 C 374.128906 165.273438 375.074219 143.976562 381.75 128.398438 C 381.496094 121.296875 386.816406 117.257812 386.136719 111.34375 C 377.90625 112.941406 365.277344 115.304688 359.328125 118.660156 Z M 459.707031 155.191406 C 462.625 151.84375 469.820312 146.480469 469.949219 142.527344 C 470.164062 135.796875 461.636719 131.203125 456.78125 127.90625 C 450.183594 123.421875 442.457031 119.660156 435.347656 115.730469 C 429.398438 112.4375 423.421875 109.40625 417.800781 110.371094 C 419.390625 113.980469 420.058594 118.511719 421.703125 122.070312 C 425.789062 121.445312 424.546875 115.476562 428.03125 114.261719 C 431.75 121.582031 419.433594 125.460938 424.136719 133.753906 C 429.9375 131.25 431.289062 121.769531 438.265625 122.070312 C 436.085938 130.359375 420.707031 135.375 428.03125 145.445312 C 430.382812 141.582031 433.753906 138.4375 436.804688 135.210938 C 439.824219 132.039062 442.15625 127.105469 447.042969 125.953125 C 446.738281 136.035156 422.433594 144.921875 431.453125 156.65625 C 437.492188 150.023438 444.59375 143.796875 449.972656 137.164062 C 451.675781 135.035156 452.359375 130.226562 456.308594 130.347656 C 454.792969 142.707031 436.378906 151.40625 431.933594 162.496094 C 429.640625 168.238281 434.507812 175.230469 434.855469 182.480469 C 437.988281 183.578125 441.519531 184.261719 446.058594 183.9375 C 446.867188 178.898438 451.816406 178.039062 454.84375 175.652344 C 461.558594 170.335938 466.175781 162.566406 472.867188 157.625 C 474.550781 161.1875 470.273438 164.863281 467.988281 167.371094 C 465.582031 170.027344 462.394531 173.289062 459.707031 175.652344 C 456.582031 178.421875 451.382812 179.5625 450.453125 183.9375 C 462.261719 182.25 467.742188 171.664062 475.292969 167.371094 C 476.1875 175.757812 465.335938 176.5625 462.628906 182.96875 C 467.308594 184.679688 476.886719 176.332031 477.742188 173.21875 C 480.386719 163.574219 475.867188 152.730469 471.886719 147.398438 C 464.847656 153.726562 458.15625 162.707031 451.429688 169.320312 C 449.492188 171.214844 446.855469 176.253906 443.140625 173.707031 C 449.359375 167.355469 453.316406 162.566406 459.707031 155.191406 Z M 391.488281 110.859375 C 388.898438 112.539062 386.121094 121.390625 384.679688 126.449219 C 379.691406 143.800781 375.394531 165.421875 373.945312 181.015625 C 391.0625 184.335938 410.816406 184.148438 430.480469 182.480469 C 427.761719 177.386719 430.382812 166.972656 426.582031 162.988281 C 428.199219 160.433594 427.269531 156.625 426.089844 154.214844 C 423.230469 154.285156 423.707031 157.683594 420.722656 157.625 C 418.457031 154.054688 424.21875 152.066406 424.625 148.859375 C 425.097656 145.046875 422.453125 142.695312 419.269531 140.574219 C 421.425781 138.484375 421.101562 135.09375 420.238281 131.800781 C 418.285156 131.496094 416.917969 134.296875 415.375 132.777344 C 416.132812 129.125 421.644531 124.785156 417.3125 120.601562 C 414.378906 120.390625 414.773438 125.667969 411.476562 123.53125 C 411.152344 119.949219 417.492188 115.835938 413.90625 110.371094 C 407.582031 109.160156 396.582031 107.523438 391.488281 110.859375 Z M 479.207031 213.644531 C 482.058594 220.335938 477.542969 225.488281 478.226562 230.703125 C 478.707031 234.328125 484.101562 236.828125 485.054688 240.9375 C 485.875 244.53125 484.835938 249.808594 483.589844 252.628906 C 481.101562 258.234375 473.753906 260.304688 472.382812 264.8125 C 471.496094 267.699219 472.378906 271.5625 471.886719 274.558594 C 471.140625 279.261719 469.707031 284.175781 467.988281 287.707031 C 465.699219 292.472656 457.425781 298.039062 456.78125 302.320312 C 456.273438 305.8125 458.792969 310.984375 459.707031 314.503906 C 460.820312 318.761719 462.082031 322.1875 464.101562 325.230469 C 493.65625 337.792969 526.628906 344.167969 555.707031 356.894531 C 569.734375 363.035156 587.523438 370.546875 594.679688 383.691406 C 596.136719 386.351562 596.335938 389.585938 597.605469 392.464844 C 599.484375 396.742188 602.53125 400.675781 603.945312 405.125 C 607.421875 416.148438 608.074219 426.898438 609.300781 441.175781 C 609.597656 444.621094 610.890625 447.910156 611.246094 451.40625 C 612.769531 466.457031 612.480469 482.101562 611.75 497.699219 C 611.378906 505.230469 610.410156 513.167969 610.757812 520.601562 C 611.09375 527.714844 612.773438 534.683594 613.195312 542.035156 C 614.136719 558.621094 612.449219 575.746094 614.167969 592.214844 C 614.671875 596.960938 616.25 601.488281 615.640625 608.78125 C 613.511719 633.78125 605.472656 663.210938 592.742188 678.449219 C 580.914062 692.601562 564.292969 702.648438 547.425781 712.546875 C 541.585938 715.988281 535.4375 721.371094 530.855469 722.292969 C 528.730469 722.722656 526.082031 721.941406 523.535156 722.292969 C 518.132812 723.042969 512.65625 726.511719 507.457031 727.167969 C 490.734375 729.277344 479.804688 723.683594 471.410156 715.964844 C 467.484375 712.367188 463.308594 708.351562 461.65625 703.300781 C 459.367188 696.253906 462.570312 686.140625 458.730469 678.941406 C 425.890625 682.519531 385.015625 678.71875 350.5625 681.859375 C 348.828125 691.917969 351.84375 693.359375 350.070312 701.839844 C 348.140625 711.109375 335.515625 721.417969 327.167969 724.726562 C 320.179688 727.515625 311.539062 727.957031 304.269531 727.167969 C 298.59375 726.5625 293.371094 723.097656 287.699219 722.292969 C 285.070312 721.929688 282.128906 722.777344 279.914062 722.292969 C 274.996094 721.25 268.316406 715.5 263.335938 712.546875 C 242.632812 700.304688 220.691406 686.550781 209.742188 664.816406 C 207.199219 659.78125 205.355469 653.824219 203.40625 647.757812 C 201.382812 641.449219 201.003906 634.488281 199.023438 628.761719 C 198.296875 626.65625 196.109375 624.597656 195.605469 622.414062 C 194.730469 618.597656 195.492188 613.109375 195.121094 608.78125 C 194.007812 595.644531 194.910156 582.566406 195.121094 568.828125 C 195.25 560.09375 195.304688 550.980469 196.097656 542.035156 C 196.828125 533.636719 198.765625 524.785156 198.535156 516.699219 C 197.957031 497.152344 196.53125 477.347656 197.554688 457.253906 C 197.878906 450.890625 199.574219 445.015625 199.996094 439.230469 C 201.285156 421.457031 203.414062 407.332031 209.742188 394.898438 C 211.597656 391.253906 212.886719 387.378906 214.613281 384.175781 C 223.953125 366.855469 251.09375 357.730469 271.128906 350.558594 C 279.835938 347.449219 287.816406 344.058594 297.9375 341.300781 C 310.734375 337.808594 324.488281 333.054688 336.914062 328.152344 C 344.511719 325.152344 345.960938 322.425781 349.097656 313.046875 C 350.847656 307.8125 352.839844 301.171875 352.515625 297.945312 C 352.121094 294.03125 347.046875 289.664062 344.722656 285.277344 C 342.164062 280.484375 339.46875 275.425781 337.894531 271.625 C 336.765625 268.933594 336.425781 264.109375 334.964844 262.371094 C 333.144531 260.207031 329.332031 259.878906 327.167969 257.988281 C 320.277344 251.9375 312.492188 235.757812 321.324219 226.328125 C 322.90625 224.640625 326.191406 222.863281 326.6875 220.964844 C 327.148438 219.1875 325.847656 215.558594 325.707031 213.171875 C 325.519531 209.871094 326.109375 206.585938 325.707031 204.398438 C 324.414062 197.332031 317.992188 193.269531 317.429688 187.832031 C 317.210938 185.789062 317.832031 180.492188 318.390625 177.605469 C 319.574219 171.621094 322.558594 164.625 324.734375 158.609375 C 326.917969 152.53125 330.152344 146.96875 333.019531 141.550781 C 338.648438 130.875 345.96875 117.714844 356.894531 112.320312 C 370.035156 105.828125 393.199219 100.828125 410.980469 102.085938 C 415.960938 102.4375 422.40625 102.886719 427.0625 104.027344 C 432.691406 105.429688 439.550781 110.570312 446.058594 113.78125 C 449.277344 115.355469 452.402344 116.789062 455.332031 118.660156 C 458.171875 120.464844 462.03125 122.070312 464.101562 124.007812 C 466.207031 126 468.5 130.796875 471.410156 134.246094 C 476.890625 140.773438 481.738281 147.398438 483.589844 156.160156 C 484.984375 162.828125 483.023438 174.960938 484.554688 181.980469 C 485.910156 188.175781 491.601562 193.996094 490.414062 200.980469 C 489.296875 207.488281 483.453125 209.363281 479.207031 213.644531 " fill-opacity="1" fill-rule="evenodd"/></g></svg>