<svg xmlns="http://www.w3.org/2000/svg" xmlns:xlink="http://www.w3.org/1999/xlink" width="1080" zoomAndPan="magnify" viewBox="0 0 810 809.999993" height="1080" preserveAspectRatio="xMidYMid meet" version="1.0"><defs><clipPath id="b1d8155691"><path d="M 88 106 L 671.390625 106 L 671.390625 717 L 88 717 Z M 88 106 " clip-rule="nonzero"/></clipPath></defs><g clip-path="url(#b1d8155691)"><path fill="#000000" d="M 659.136719 589.296875 C 658.730469 599.664062 658.214844 610.035156 657.589844 620.390625 C 657.03125 629.632812 659.492188 652.632812 644.128906 646.511719 C 641.257812 645.371094 640.464844 646.199219 638.605469 643.441406 C 633.195312 635.40625 641.238281 607.039062 641.9375 598.4375 C 645.953125 549.339844 646 499.9375 644.84375 450.722656 C 644.613281 440.753906 644.023438 430.757812 643.96875 420.792969 C 643.734375 378.828125 637.402344 336.734375 637.90625 294.929688 C 637.746094 308.351562 643.035156 323.757812 645.09375 337.105469 C 647.386719 351.988281 649.433594 366.902344 651.226562 381.851562 C 659.480469 450.636719 661.832031 520.078125 659.136719 589.296875 Z M 616.722656 653.15625 C 616.179688 602.136719 638.039062 427.722656 622.972656 295.816406 C 622.84375 295.488281 628.007812 269.007812 635.773438 461.433594 C 636.53125 561.050781 629.359375 619.511719 628.25 653.792969 C 624.507812 652.597656 620.574219 652.613281 616.722656 653.15625 Z M 606.84375 666.679688 C 603.027344 665.519531 588.066406 666.371094 584.308594 666.679688 C 566.628906 668.628906 626.746094 427.78125 608.953125 299.09375 C 631.050781 294.144531 606.894531 630.714844 606.84375 666.679688 Z M 567.058594 680.605469 C 510.566406 675.789062 532.828125 728.847656 568.042969 502.820312 C 595.394531 281.339844 558.507812 304.816406 599.488281 300.316406 C 617.410156 395.367188 566.816406 627.269531 567.058594 680.605469 Z M 517.535156 704.683594 C 510.273438 703.347656 281.964844 712.828125 106.769531 694.140625 C 173.640625 660.023438 266.234375 477.796875 247.167969 315.511719 C 246.425781 309.367188 527.261719 301.921875 570.4375 301.679688 C 569.390625 307.933594 568.183594 385.054688 566.519531 411.503906 C 563.855469 519.75 523.769531 666.964844 517.535156 704.683594 Z M 477.6875 231.847656 C 468.984375 227.246094 472.242188 207.699219 486.6875 212.179688 C 506.371094 218.234375 490.902344 239.1875 477.6875 231.847656 Z M 335.195312 229.214844 C 335.589844 246.675781 303.042969 241.109375 314.246094 224.089844 C 321.382812 216.003906 334.660156 216.773438 335.195312 229.214844 Z M 230.277344 247.246094 C 228.5625 218.054688 222.113281 185.878906 224.851562 179.253906 C 327.703125 172.105469 293.523438 159.921875 312.316406 212.761719 C 296.875 222.886719 298.535156 248.578125 322.796875 249.613281 C 353.175781 252.21875 351.445312 203.835938 321.515625 209.167969 C 318.523438 201.402344 313.8125 183.765625 312.660156 172.757812 C 486.871094 168.628906 463.046875 154.199219 468.894531 174.628906 C 478.203125 219.199219 479.914062 195.285156 470.878906 207.386719 C 459.617188 215.558594 460.203125 241.625 485.671875 241.625 C 509.617188 241.613281 514.890625 206.832031 486.960938 202.390625 C 482.503906 189.761719 478.304688 176.5625 476.617188 163.164062 C 553.785156 156.441406 559.777344 155.066406 575.519531 159.503906 C 581.207031 205.601562 582.476562 271.488281 585.234375 291.679688 C 488.003906 292.96875 337.378906 295.65625 232.75 303.964844 C 231.6875 285.390625 232.429688 265.964844 230.277344 247.246094 Z M 371.902344 160.652344 C 346.113281 162 372.550781 161.316406 312.265625 163.011719 C 313.648438 121.917969 359.558594 109.050781 371.902344 160.652344 Z M 475.984375 145.8125 C 476.496094 137.40625 476.394531 127.785156 482.507812 121.25 C 487.792969 118.148438 493.496094 113.640625 499.957031 115.730469 C 513.988281 126.84375 519.261719 131.59375 519.859375 149.832031 C 468.925781 153.75 475.25 156.300781 475.984375 145.8125 Z M 595.21875 164.878906 C 643.050781 172.375 628.355469 181.53125 635.511719 209.8125 C 636.351562 215.925781 637.175781 264.011719 634.972656 275.515625 C 629.746094 287.09375 607.84375 289.574219 595.113281 290.972656 C 594.1875 281.035156 587.871094 175.402344 587.003906 165.667969 C 586.480469 163.433594 585.542969 162.859375 595.21875 164.878906 Z M 635.09375 292.253906 C 635.757812 294.007812 635.140625 292 633.847656 290.875 C 634.175781 290.65625 633.605469 290.894531 635.09375 292.253906 Z M 667.011719 436.335938 C 665.324219 415.910156 663.136719 395.527344 660.453125 375.210938 C 657.777344 354.9375 655.246094 334.363281 650.777344 314.398438 C 650.09375 311.347656 641.039062 284.464844 641.265625 284.238281 C 648.324219 275.507812 646.109375 220.316406 645.753906 212.632812 C 640.578125 169.457031 643.890625 166.539062 604.988281 156.855469 C 601.445312 156.269531 592.183594 153.648438 584.976562 153.554688 C 580.65625 145.164062 541.699219 147.132812 529.667969 148.734375 C 528.773438 121.894531 506.753906 92.992188 476.957031 113.128906 C 466.355469 122 465.820312 138.667969 465.863281 154.179688 C 383.558594 159.921875 481.125 150.328125 381.878906 160.339844 C 381.238281 160.339844 377.460938 129.378906 354.101562 118.972656 C 332.234375 112.691406 308.15625 124.679688 303.171875 153.667969 C 301.828125 165.875 306.746094 163.085938 286.695312 163.808594 C 249.367188 166.402344 233.695312 164.085938 227.480469 165.585938 C 200.941406 168.519531 220.207031 226.730469 222.007812 268.808594 C 221.539062 304.550781 222.464844 311.054688 229.199219 313.796875 C 265.03125 313.074219 224.125 624.953125 90.65625 691.714844 C 54.136719 716.425781 458.730469 719.457031 499.679688 713.371094 C 530.046875 713.765625 522.882812 725.300781 529.933594 691.371094 C 540.910156 692.6875 575.140625 689.71875 575.957031 689.292969 C 579.976562 686.617188 576.761719 683.796875 576.949219 677.519531 C 577.769531 677.753906 572.152344 677.886719 598.203125 675.996094 C 612.109375 674.964844 616.707031 682.203125 616.78125 663.109375 C 630.332031 660.480469 636.90625 675.996094 637.964844 655.828125 C 643.140625 656.433594 648.640625 655.882812 653.773438 656.496094 C 668.59375 658.265625 665.832031 645.425781 666.628906 634.691406 C 669.039062 602.058594 671.386719 569.835938 671.296875 536.996094 C 671.210938 503.40625 669.78125 469.816406 667.011719 436.335938 " fill-opacity="1" fill-rule="nonzero"/></g><path fill="#000000" d="M 473.316406 219.101562 C 473.316406 219.113281 473.300781 219.125 473.300781 219.140625 C 473.300781 219.148438 473.316406 219.089844 473.316406 219.101562 " fill-opacity="1" fill-rule="nonzero"/><path fill="#000000" d="M 473.300781 219.15625 C 473.300781 219.160156 473.296875 219.171875 473.289062 219.175781 C 473.289062 219.1875 473.289062 219.1875 473.289062 219.203125 C 473.289062 219.191406 473.296875 219.171875 473.300781 219.15625 " fill-opacity="1" fill-rule="nonzero"/><path fill="#000000" d="M 346.140625 600.898438 C 268.640625 597.097656 269.328125 599.785156 257.3125 599.308594 C 236.859375 598.507812 242.734375 610.59375 249.839844 609.382812 C 327.804688 606.535156 465.710938 620.488281 464.011719 606.957031 C 462.859375 597.261719 446.238281 605.859375 346.140625 600.898438 " fill-opacity="1" fill-rule="nonzero"/><path fill="#000000" d="M 439.253906 639.054688 C 438.925781 639.027344 263.519531 630.449219 247.664062 631.613281 C 241.242188 632.460938 242.550781 642.109375 248.871094 641.375 C 281.890625 639.035156 306.40625 644.640625 433.558594 648.539062 C 445.867188 649.945312 443.96875 640.449219 439.253906 639.054688 " fill-opacity="1" fill-rule="nonzero"/><path fill="#000000" d="M 323.152344 663.320312 C 318.640625 663.269531 310.9375 661.078125 310.5 667.753906 C 310.65625 673.957031 317.972656 672.6875 322.269531 673.121094 C 337.972656 674 382.71875 679.140625 382.855469 670.136719 C 382.964844 662.242188 378.191406 666.59375 323.152344 663.320312 " fill-opacity="1" fill-rule="nonzero"/><path fill="#000000" d="M 348.996094 519.253906 C 361.574219 519.253906 367.601562 527.609375 370.238281 506.671875 C 376.058594 432.847656 392.105469 418.765625 379.132812 417.085938 C 371.871094 417.085938 377.804688 422.566406 367.585938 434.714844 C 363.882812 438.644531 355.664062 449.484375 340.203125 445.566406 C 312.097656 429.378906 409.414062 315.007812 414.566406 353.253906 C 421.085938 366.839844 416.769531 414.34375 414.734375 429.167969 C 405.640625 488.351562 407.960938 448.402344 408.417969 506.238281 C 407.859375 516 415.953125 511.824219 424.714844 524.335938 C 424.128906 523.753906 440.625 540.984375 397.511719 539.644531 C 311.863281 542.035156 317.40625 519.253906 348.996094 519.253906 Z M 365.417969 549.65625 C 378.601562 548.78125 436.351562 553.660156 436.835938 535.921875 C 440.71875 516.257812 422.792969 509.21875 418.246094 506.109375 C 418.246094 426.617188 421.898438 463.003906 424.9375 427.308594 C 427 412.8125 430.632812 365.636719 424.359375 351.394531 C 420.976562 334.777344 404.839844 335.109375 391.828125 340.09375 C 370.378906 350.410156 335.113281 398.789062 327.753906 421.59375 C 317.480469 446.234375 336 462.683594 355.777344 454.433594 C 377.875 450.101562 365.601562 427.050781 360.226562 510.757812 C 315.664062 500.433594 290.011719 544.195312 365.417969 549.65625 " fill-opacity="1" fill-rule="nonzero"/></svg>